<?xml version="1.0" standalone="no"?>
<!DOCTYPE svg PUBLIC "-//W3C//DTD SVG 20010904//EN"
 "http://www.w3.org/TR/2001/REC-SVG-20010904/DTD/svg10.dtd">
<svg version="1.0" xmlns="http://www.w3.org/2000/svg"
 width="460.000000pt" height="460.000000pt" viewBox="0 0 460.000000 460.000000"
 preserveAspectRatio="xMidYMid meet">

<g transform="translate(0.000000,460.000000) scale(0.100000,-0.100000)"
fill="#000000" stroke="none">
<path d="M0 2584 l0 -2015 50 57 c28 32 48 64 46 70 -3 9 1 11 11 7 13 -5 15
-2 10 11 -4 10 -3 15 3 11 10 -6 58 23 88 52 33 32 80 63 95 63 10 0 17 5 17
10 0 6 9 10 19 10 11 0 21 3 23 8 4 10 87 52 103 52 7 0 15 5 17 11 2 5 10 11
18 13 20 4 51 16 72 27 10 5 24 9 32 9 7 0 19 6 26 14 6 8 17 13 25 10 7 -3
16 -1 20 5 3 6 15 11 26 11 11 0 17 5 14 10 -4 6 6 10 24 10 16 0 32 4 35 8 3
4 28 14 55 22 28 7 51 17 51 22 0 4 6 8 14 8 8 0 40 14 71 30 31 17 63 30 71
30 8 0 14 5 14 10 0 6 9 10 20 10 11 0 20 5 20 10 0 6 6 10 14 10 7 0 60 23
117 51 57 28 115 56 129 61 14 6 33 14 42 19 10 5 25 9 33 9 8 0 15 3 15 8 0
4 15 13 33 20 17 7 40 18 49 23 10 5 25 9 34 9 22 0 42 23 50 56 14 63 57 201
71 228 18 35 10 112 -13 119 -9 3 -8 4 3 3 10 -1 22 -14 28 -32 6 -17 15 -29
23 -27 11 4 16 -8 13 -33 -1 -7 16 -43 38 -80 45 -79 59 -118 41 -112 -11 3
-38 49 -58 98 -8 19 -9 10 -5 -40 9 -124 35 -240 54 -240 5 0 8 -3 8 -7 -5
-29 3 -53 17 -53 11 0 14 -5 10 -17 -4 -10 -4 -14 0 -11 9 9 111 -121 153
-194 18 -32 36 -58 40 -58 4 0 13 -16 20 -35 7 -20 31 -55 53 -78 21 -23 42
-55 45 -72 7 -39 26 -85 35 -85 16 0 23 5 20 15 -1 5 17 -11 40 -37 24 -26 73
-63 110 -83 36 -20 85 -56 107 -80 23 -25 45 -45 49 -45 5 0 37 30 73 66 49
51 58 65 39 59 -22 -7 -23 -6 -12 8 11 13 10 17 -7 26 -14 8 -21 8 -24 -2 -4
-9 -8 -8 -16 3 -7 10 -6 17 2 22 16 10 8 16 -40 26 -27 6 -45 6 -51 0 -16 -16
-34 2 -28 28 6 24 -9 34 -17 12 -4 -10 -7 -10 -18 0 -11 10 -11 12 1 12 9 0 7
5 -5 14 -19 14 -19 14 0 36 12 14 18 32 17 51 -4 37 24 51 46 23 13 -18 14
-17 10 8 -5 28 6 39 15 16 2 -7 8 -9 13 -5 5 5 1 13 -9 18 -9 6 -17 18 -17 28
0 14 -11 21 -37 27 -21 4 -42 7 -46 6 -4 -1 -14 3 -21 10 -12 11 -10 15 8 25
12 7 15 12 7 13 -8 0 -23 -7 -33 -17 -15 -13 -23 -14 -43 -5 -37 17 -67 -3
-54 -36 8 -20 7 -23 -7 -18 -13 5 -15 2 -11 -14 3 -11 1 -23 -4 -26 -5 -3 -9
-1 -9 5 0 5 -16 26 -35 47 -19 20 -35 34 -35 30 0 -5 -19 16 -42 45 -62 78
-71 89 -98 118 -42 45 -140 203 -140 226 0 3 8 1 19 -4 10 -6 21 -7 25 -3 4 3
4 -1 1 -10 -5 -12 9 -26 52 -54 32 -21 59 -42 61 -46 2 -5 9 -8 16 -8 7 0 21
-9 31 -20 10 -11 26 -20 35 -20 10 0 23 -7 30 -15 7 -8 37 -22 66 -31 30 -8
56 -20 59 -25 4 -5 17 -9 31 -9 14 0 23 -4 20 -9 -7 -11 22 -23 35 -15 5 3 16
-2 25 -10 8 -9 26 -16 40 -16 13 0 23 -3 23 -7 -3 -19 2 -33 12 -33 14 0 39
-25 39 -39 0 -15 27 -14 33 2 3 9 7 9 18 0 8 -7 25 -9 38 -6 20 5 22 4 13 -13
-12 -22 -5 -74 10 -74 6 0 8 -6 5 -12 -7 -18 26 -75 41 -70 7 2 12 -5 12 -17
0 -25 65 -47 87 -29 7 6 16 8 20 4 3 -3 0 -6 -7 -6 -7 0 -11 -3 -7 -6 8 -8 67
28 67 41 0 5 16 42 36 80 19 39 51 111 70 160 74 189 120 279 167 321 20 19
37 37 37 40 0 4 12 21 28 38 22 25 34 31 60 29 36 -3 37 -1 20 30 -6 12 -12
33 -13 47 -1 14 -6 40 -10 59 -13 57 9 29 60 -74 26 -53 51 -98 56 -100 4 -3
15 -28 24 -55 17 -53 40 -70 29 -23 l-6 28 21 -25 c11 -14 26 -25 33 -25 13
-1 69 -25 78 -35 3 -3 10 -5 15 -6 19 -1 70 -15 87 -25 10 -5 27 -9 38 -9 11
0 20 -4 20 -10 0 -5 11 -10 24 -10 13 0 29 -7 36 -15 7 -8 16 -12 21 -10 4 3
16 1 26 -4 10 -5 39 -15 66 -23 26 -7 47 -16 47 -20 0 -4 14 -8 30 -8 17 0 30
-4 30 -10 0 -5 9 -10 19 -10 11 0 23 -4 26 -10 3 -5 17 -10 30 -10 13 0 27 -4
30 -10 3 -5 17 -10 30 -10 13 0 27 -4 30 -10 3 -5 15 -10 26 -10 10 0 19 -4
19 -10 0 -5 9 -10 19 -10 11 0 23 -4 26 -10 3 -5 17 -10 31 -10 13 0 32 -4 42
-10 37 -21 214 -100 224 -100 5 0 28 -14 49 -31 l39 -31 0 1856 0 1856 -2300
0 -2300 0 0 -2016z m2543 1689 c-7 -2 -19 -2 -25 0 -7 3 -2 5 12 5 14 0 19 -2
13 -5z m-783 -63 c0 -5 -7 -10 -16 -10 -8 0 -12 5 -9 10 3 6 10 10 16 10 5 0
9 -4 9 -10z m-160 -164 c0 -3 -4 -8 -10 -11 -5 -3 -10 -1 -10 4 0 6 5 11 10
11 6 0 10 -2 10 -4z m-20 -36 c0 -5 -2 -10 -4 -10 -3 0 -8 5 -11 10 -3 6 -1
10 4 10 6 0 11 -4 11 -10z m-25 -50 c-3 -5 -12 -10 -18 -10 -7 0 -6 4 3 10 19
12 23 12 15 0z m1793 -225 c0 -29 0 -29 -8 -5 -4 14 -8 36 -8 50 -1 23 0 23 8
5 5 -11 8 -33 8 -50z m9 -92 c-3 -10 -5 -4 -5 12 0 17 2 24 5 18 2 -7 2 -21 0
-30z m-1014 -64 c12 -7 24 -15 27 -19 3 -5 19 -9 35 -11 17 -2 38 -9 47 -17 9
-8 22 -11 29 -6 7 4 10 3 5 -4 -3 -6 0 -14 7 -19 21 -13 25 -46 8 -65 -12 -12
-31 -16 -76 -14 -33 1 -69 6 -80 10 l-20 8 20 -13 c11 -7 26 -20 33 -30 6 -10
26 -20 42 -23 17 -3 44 -9 61 -12 33 -6 109 -76 90 -82 -6 -2 5 -20 25 -40 64
-67 74 -79 74 -90 0 -6 18 -19 40 -29 41 -19 52 -33 24 -33 -8 0 -13 -4 -10
-9 3 -5 -9 -11 -27 -14 -52 -8 -63 -12 -88 -29 -14 -9 -34 -18 -44 -20 -11 -2
-19 -10 -17 -17 2 -9 -3 -11 -13 -7 -12 4 -14 0 -9 -18 3 -15 -5 -43 -26 -83
-44 -85 -43 -138 11 -384 11 -50 11 -60 -4 -82 -9 -14 -29 -32 -44 -39 -33
-16 -36 -31 -8 -36 11 -2 25 -8 30 -14 7 -7 -18 -8 -77 -3 -77 6 -87 5 -97
-12 -6 -10 -11 -12 -11 -5 0 8 -10 10 -32 6 -39 -7 -61 -12 -68 -14 -3 -1 -8
-2 -12 -1 -5 0 -8 -4 -8 -11 0 -6 -3 -9 -6 -5 -3 3 -14 -3 -25 -14 -14 -14
-33 -19 -69 -19 l-50 0 21 43 c12 23 34 77 49 120 15 43 31 81 34 84 3 4 6 11
6 16 0 17 -46 -35 -84 -95 -20 -31 -36 -59 -36 -62 0 -6 -27 -40 -51 -65 -36
-35 -70 -105 -76 -151 -5 -42 -3 -50 16 -62 11 -7 21 -18 21 -24 0 -6 7 -17
15 -24 8 -7 15 -24 15 -39 0 -40 14 -55 44 -47 22 5 26 12 26 42 0 65 30 92
64 59 13 -14 16 -13 24 2 9 15 14 15 39 4 15 -7 57 -15 92 -17 37 -2 68 -9 73
-17 5 -8 8 -6 8 8 0 25 -44 44 -80 35 -43 -10 -90 11 -98 45 -6 23 -15 31 -37
35 -16 3 -30 10 -32 16 -5 14 55 66 62 54 4 -6 10 -8 15 -5 4 3 11 -3 14 -12
6 -14 10 -12 26 14 20 34 40 50 40 33 0 -6 10 -8 25 -4 17 4 25 2 25 -7 0 -8
7 -4 15 8 11 15 30 24 63 28 26 4 57 11 70 17 16 8 28 8 45 0 12 -6 39 -16 60
-23 33 -12 35 -14 17 -21 -24 -9 -25 -21 -4 -42 8 -9 12 -16 7 -17 -4 -1 3 -4
17 -9 l25 -7 -28 -12 c-16 -6 -43 -12 -60 -12 l-32 -2 35 -6 c19 -4 39 -4 44
1 18 15 45 8 57 -14 10 -19 12 -19 21 -5 15 27 38 21 38 -10 0 -42 -10 -49
-70 -48 -30 1 -60 -2 -65 -6 -6 -4 -31 -9 -55 -12 -37 -3 -34 -4 20 -5 78 -3
113 -11 107 -26 -18 -48 -19 -59 -4 -53 12 4 13 1 8 -16 -18 -53 -36 -87 -46
-85 -5 1 -32 -1 -60 -5 -27 -4 -79 -10 -115 -13 -66 -5 -87 -14 -76 -32 6 -11
63 -25 87 -23 9 1 19 -8 22 -20 5 -18 11 -21 37 -15 35 7 105 -18 95 -34 -3
-5 -17 -10 -30 -10 -22 0 -24 -3 -15 -26 6 -14 10 -27 10 -30 0 -10 -46 -21
-56 -13 -13 10 -74 -11 -74 -26 0 -5 -5 -3 -10 5 -8 12 -10 11 -10 -7 0 -13
-4 -23 -10 -23 -5 0 -10 5 -10 10 0 17 -18 11 -40 -12 -11 -12 -20 -17 -20
-11 0 15 -40 24 -41 10 0 -8 -2 -9 -5 -1 -3 6 -16 9 -29 6 -17 -3 -25 0 -25 9
0 11 -2 11 -10 -1 -9 -13 -12 -13 -21 3 -6 9 -14 15 -18 12 -10 -5 -41 23 -91
82 -26 32 -37 39 -47 31 -10 -8 -13 -5 -13 11 0 11 -4 21 -10 21 -5 0 -10 -4
-10 -10 0 -19 -18 -10 -25 13 l-8 22 -4 -23 c-3 -15 -10 -22 -19 -18 -9 3 -14
-1 -14 -14 0 -16 -4 -17 -32 -9 -38 11 -155 129 -160 162 -2 12 -9 21 -16 19
-6 -1 -12 6 -12 16 0 10 -4 22 -9 28 -21 22 -52 89 -43 92 7 2 6 18 -3 45 -7
23 -16 55 -19 70 -4 15 -10 25 -15 23 -9 -6 -6 529 4 649 8 92 13 112 44 160
51 79 90 167 102 226 6 33 21 71 31 85 11 13 33 51 50 84 46 92 145 168 241
185 20 3 37 10 37 15 0 20 194 19 233 -1z m1087 -71 c0 -13 -23 -5 -28 10 -2
7 2 10 12 6 9 -3 16 -11 16 -16z m-2000 -4 c0 -2 -7 -4 -15 -4 -8 0 -15 4 -15
10 0 5 7 7 15 4 8 -4 15 -8 15 -10z m2024 -134 c-7 -6 -24 22 -23 40 0 9 6 5
14 -10 7 -14 11 -27 9 -30z m33 -197 c-3 -10 -5 -2 -5 17 0 19 2 27 5 18 2
-10 2 -26 0 -35z m-662 -203 c-3 -5 -1 -18 5 -29 6 -12 6 -22 1 -25 -5 -4 -11
-1 -13 6 -3 7 -9 8 -19 3 -18 -12 -109 -14 -103 -3 3 4 10 8 16 8 6 0 19 6 27
14 9 8 32 19 51 24 19 6 36 11 38 11 2 1 0 -3 -3 -9z m612 -22 c-3 -8 -6 -5
-6 6 -1 11 2 17 5 13 3 -3 4 -12 1 -19z m-763 -33 c-4 -8 -8 -15 -10 -15 -2 0
-4 7 -4 15 0 8 4 15 10 15 5 0 7 -7 4 -15z m761 -29 c0 -13 -3 -22 -7 -19 -5
2 -8 13 -8 24 0 10 3 19 8 19 4 0 7 -11 7 -24z m-630 4 c-3 -5 -14 -10 -23 -9
-14 0 -13 2 3 9 27 11 27 11 20 0z m7 -45 c0 -5 -5 -11 -11 -13 -6 -2 -11 4
-11 13 0 9 5 15 11 13 6 -2 11 -8 11 -13z m-48 -21 c9 -22 2 -27 -24 -19 -17
5 -19 10 -9 21 15 18 25 18 33 -2z m735 -36 c3 5 6 -31 5 -81 -1 -72 -7 -111
-28 -177 -16 -47 -30 -102 -33 -123 -3 -20 -9 -40 -14 -43 -15 -9 -10 16 23
126 25 86 31 123 32 207 1 57 3 98 5 92 2 -8 6 -8 10 -1z m-1994 -58 c19 -7
25 -17 27 -42 0 -18 2 -52 4 -76 2 -38 -1 -47 -28 -71 -27 -24 -31 -34 -30
-70 2 -52 18 -83 40 -79 13 3 16 13 14 41 -2 20 4 49 13 64 15 27 15 24 11
-62 -2 -53 2 -116 10 -155 7 -36 11 -75 8 -86 -3 -12 -1 -25 5 -28 6 -4 11
-21 11 -37 0 -17 6 -32 15 -35 12 -5 15 -22 13 -78 -2 -62 -3 -67 -11 -36 -4
19 -13 50 -18 67 -6 18 -7 37 -4 43 3 5 2 10 -4 10 -5 0 -13 9 -16 20 -4 13
-15 20 -33 20 -25 0 -82 44 -82 63 0 5 -6 23 -14 40 -14 30 -39 135 -52 217
-4 19 -15 58 -25 85 -10 28 -19 75 -19 106 0 46 5 61 25 83 13 14 33 26 44 26
11 0 22 4 26 10 3 5 15 0 26 -11 11 -11 31 -24 44 -29z m1235 40 c0 -5 -6 -10
-14 -10 -8 0 -18 5 -21 10 -3 6 3 10 14 10 12 0 21 -4 21 -10z m60 6 c0 -2
-11 -6 -25 -8 -14 -3 -25 -1 -25 3 0 5 11 9 25 9 14 0 25 -2 25 -4z m216 -159
c1 -1 5 -12 8 -24 6 -20 4 -23 -20 -23 -26 0 -27 0 -9 -20 10 -11 15 -20 12
-20 -3 0 1 -16 9 -36 9 -20 16 -65 17 -99 1 -35 4 -62 8 -60 3 2 3 -9 1 -26
-2 -16 -7 -29 -11 -29 -4 0 -7 -16 -8 -35 -1 -20 -9 -47 -18 -62 l-18 -26 -27
59 c-25 54 -72 114 -90 114 -16 0 -70 84 -70 107 0 29 -23 76 -62 125 -28 36
-28 37 -9 47 11 6 39 11 63 12 24 1 54 4 68 8 20 5 150 -5 156 -12z m-354
-173 c20 -13 -5 -22 -35 -12 -40 14 -40 14 -33 27 6 9 40 2 68 -15z m775 -136
c-3 -7 -5 -2 -5 12 0 14 2 19 5 13 2 -7 2 -19 0 -25z m-964 5 c-7 -2 -19 -2
-25 0 -7 3 -2 5 12 5 14 0 19 -2 13 -5z m960 -52 c-6 -25 -51 -74 -80 -90 -13
-6 -23 -19 -24 -29 0 -14 -2 -14 -9 3 -13 30 -12 32 21 45 17 7 44 30 61 52
36 44 38 45 31 19z m-136 -183 c-3 -8 -6 -5 -6 6 -1 11 2 17 5 13 3 -3 4 -12
1 -19z m-328 -77 c-7 -14 -14 -32 -15 -40 -1 -7 -8 -19 -15 -25 -9 -8 -10 -6
-6 12 3 12 1 20 -4 16 -17 -10 -5 60 15 95 l20 35 9 -34 c6 -23 5 -42 -4 -59z
m308 -43 c-3 -7 -5 -2 -5 12 0 14 2 19 5 13 2 -7 2 -19 0 -25z m-10 -50 c-3
-8 -6 -5 -6 6 -1 11 2 17 5 13 3 -3 4 -12 1 -19z m-24 -50 c-3 -16 -9 -28 -14
-28 -11 0 -11 3 1 36 13 33 20 29 13 -8z m-1588 -18 c3 -5 1 -10 -4 -10 -6 0
-11 5 -11 10 0 6 2 10 4 10 3 0 8 -4 11 -10z m1549 -72 c-12 -22 -19 -28 -22
-18 -3 7 0 16 7 18 6 2 11 10 11 18 0 8 5 14 10 14 6 0 3 -15 -6 -32z m-1324
-84 c0 -8 -4 -12 -10 -9 -5 3 -10 10 -10 16 0 5 5 9 10 9 6 0 10 -7 10 -16z
m94 -330 c9 -3 16 -12 16 -20 0 -12 -4 -12 -20 -2 -30 19 -27 34 4 22z m54
-27 c8 -10 6 -13 -7 -13 -10 0 -18 6 -18 13 0 7 4 13 7 13 4 0 12 -6 18 -13z
m272 -337 c0 -5 -4 -10 -10 -10 -5 0 -10 5 -10 10 0 6 5 10 10 10 6 0 10 -4
10 -10z"/>
<path d="M2402 3218 c5 -15 37 -18 41 -3 1 6 -9 12 -22 13 -16 3 -22 -1 -19
-10z"/>
<path d="M2038 3041 c-7 -12 -16 -21 -21 -21 -4 0 -6 4 -3 8 3 5 -23 8 -57 8
-54 -1 -62 -4 -64 -21 -2 -11 0 -14 3 -7 8 18 45 15 95 -7 24 -11 64 -22 89
-26 25 -3 59 -8 75 -10 51 -7 135 6 135 21 0 22 -79 56 -135 59 -27 2 -62 6
-77 10 -21 5 -29 2 -40 -14z"/>
<path d="M2030 2897 c-142 -37 -220 -74 -220 -104 0 -5 44 -9 98 -10 102 -1
152 -13 152 -37 0 -20 22 -26 61 -17 19 4 39 8 44 9 6 1 10 7 10 14 0 6 6 13
13 16 6 2 12 -1 12 -7 0 -13 27 -15 35 -2 3 6 -4 25 -14 43 -11 18 -16 35 -12
38 5 3 -3 19 -18 35 -22 25 -34 30 -76 31 -28 0 -66 -4 -85 -9z m-90 -41 c0
-2 -7 -7 -16 -10 -8 -3 -12 -2 -9 4 6 10 25 14 25 6z m94 -21 c-4 -8 -7 -15
-9 -15 -2 0 -5 7 -9 15 -3 9 0 15 9 15 9 0 12 -6 9 -15z m-57 -41 c-10 -10
-47 7 -47 21 0 21 34 23 44 3 5 -10 7 -21 3 -24z m173 15 c0 -5 -7 -9 -15 -9
-15 0 -20 12 -9 23 8 8 24 -1 24 -14z"/>
<path d="M2239 2410 l-24 -19 27 -1 c14 0 28 5 30 10 2 6 20 11 41 12 57 2 56
18 -1 18 -35 0 -57 -6 -73 -20z"/>
<path d="M2585 2000 c-3 -5 -1 -10 4 -10 6 0 11 5 11 10 0 6 -2 10 -4 10 -3 0
-8 -4 -11 -10z"/>
<path d="M1393 2728 c-23 -31 -36 -98 -26 -131 34 -100 73 -201 82 -210 19
-19 23 1 6 35 -27 54 -29 115 -6 187 24 73 26 102 9 119 -16 16 -53 15 -65 0z"/>
<path d="M1510 2308 c0 -9 5 -20 10 -23 13 -8 13 5 0 25 -8 13 -10 13 -10 -2z"/>
<path d="M3412 1301 c7 -11 16 -17 20 -15 4 3 8 0 8 -5 0 -6 10 -11 21 -11 18
0 19 2 9 15 -7 8 -21 15 -31 15 -11 0 -19 5 -19 10 0 6 -5 10 -10 10 -6 0 -5
-8 2 -19z"/>
<path d="M3535 1276 c11 -8 23 -12 28 -9 13 8 -3 23 -26 23 -20 0 -20 0 -2
-14z"/>
<path d="M3424 1217 c4 -21 15 -52 25 -70 12 -20 21 -61 24 -110 5 -68 10 -85
39 -127 27 -41 35 -47 44 -35 6 8 19 15 28 15 24 0 19 17 -8 24 -17 4 -27 17
-36 51 -7 25 -17 48 -21 51 -5 3 -9 16 -9 30 0 14 -4 23 -9 20 -5 -3 -11 16
-15 42 -9 63 -9 65 -5 79 2 6 1 10 -3 10 -3 -1 -18 11 -34 28 l-27 29 7 -37z"/>
<path d="M3515 1161 c4 -59 10 -83 31 -113 15 -21 30 -38 35 -38 5 0 6 -6 4
-12 -2 -7 12 -23 32 -36 30 -19 34 -20 28 -5 -4 10 -12 34 -17 53 -6 19 -17
44 -24 55 -16 22 -19 49 -5 41 13 -9 21 20 9 32 -6 6 -17 8 -24 5 -8 -3 -14 0
-14 7 0 9 -3 10 -13 1 -16 -13 -28 -5 -21 14 3 7 -2 26 -10 42 -15 27 -16 25
-11 -46z"/>
<path d="M2370 1086 c0 -2 7 -7 16 -10 8 -3 12 -2 9 4 -6 10 -25 14 -25 6z"/>
<path d="M3215 1020 c-66 -10 -105 -26 -105 -44 0 -7 -6 -19 -14 -25 -7 -6
-16 -24 -19 -40 -3 -15 -19 -43 -34 -62 -27 -32 -17 -32 20 -1 11 10 17 11 17
4 0 -7 5 -12 10 -12 6 0 10 9 10 20 0 14 12 26 38 38 43 20 55 30 67 57 7 14
11 -9 15 -85 5 -104 12 -109 25 -17 3 26 9 45 13 43 14 -8 128 102 117 112
-14 14 -100 20 -160 12z"/>
<path d="M2488 983 c6 -2 18 -2 25 0 6 3 1 5 -13 5 -14 0 -19 -2 -12 -5z"/>
<path d="M1750 969 c0 -5 5 -7 10 -4 6 3 13 -1 16 -9 3 -9 12 -16 20 -16 8 0
13 -5 12 -11 -2 -6 7 -15 20 -20 12 -5 22 -5 22 0 0 5 -6 12 -12 14 -9 4 -10
6 -1 6 6 1 19 -6 27 -15 13 -12 18 -13 29 -2 23 21 -46 67 -100 68 -24 0 -43
-5 -43 -11z"/>
<path d="M3578 923 c7 -3 16 -2 19 1 4 3 -2 6 -13 5 -11 0 -14 -3 -6 -6z"/>
<path d="M3575 860 c-3 -5 -1 -10 4 -10 6 0 11 5 11 10 0 6 -2 10 -4 10 -3 0
-8 -4 -11 -10z"/>
<path d="M3026 801 c-4 -7 -5 -15 -2 -18 9 -9 19 4 14 18 -4 11 -6 11 -12 0z"/>
<path d="M2684 768 c-11 -18 13 -33 31 -18 8 7 15 15 15 19 0 11 -39 11 -46
-1z"/>
<path d="M2587 696 c-4 -9 2 -17 14 -21 25 -8 31 -3 23 19 -8 20 -30 21 -37 2z"/>
<path d="M2810 600 c-9 -6 -10 -10 -3 -10 6 0 15 5 18 10 8 12 4 12 -15 0z"/>
<path d="M2682 465 c0 -16 2 -22 5 -12 2 9 2 23 0 30 -3 6 -5 -1 -5 -18z"/>
<path d="M4592 390 c0 -14 2 -19 5 -12 2 6 2 18 0 25 -3 6 -5 1 -5 -13z"/>
</g>
</svg>
